<svg width="25" height="33" viewBox="0 0 25 33" fill="none" xmlns="http://www.w3.org/2000/svg">
<path d="M23.9224 12.5C23.9224 17.8281 16.8384 27.2129 13.6899 31.1484C12.9634 32.0566 11.5708 32.0566 10.8442 31.1484C7.75635 27.2129 0.672363 17.8281 0.672363 12.5C0.672363 6.08203 5.87939 0.875 12.2974 0.875C18.7153 0.875 23.9224 6.08203 23.9224 12.5Z" fill="#80C3FF"/>
<path d="M12.5591 5.52539L16.3403 8.27539C16.5981 8.44727 16.6841 8.74805 16.5981 9.02734C16.5122 9.32812 16.2329 9.5 15.9536 9.5H15.5884V11.0898C15.5669 11.1113 15.5239 11.1328 15.5024 11.1543C15.1157 11.4121 14.6431 11.584 14.2349 11.584C13.8052 11.584 13.354 11.4121 12.9673 11.1543C12.4731 10.8105 11.8501 10.8105 11.3774 11.1543C11.0122 11.3906 10.561 11.584 10.1099 11.584C9.70166 11.584 9.20752 11.4121 8.8208 11.1543C8.79932 11.1113 8.75635 11.0898 8.73486 11.0684V9.5H8.39111C8.09033 9.5 7.81104 9.32812 7.7251 9.02734C7.63916 8.74805 7.74658 8.44727 7.98291 8.27539L11.7642 5.52539C12.0005 5.33203 12.3228 5.33203 12.5591 5.52539ZM11.7642 12.0352C12.0005 11.8633 12.3228 11.8633 12.5591 12.0352C13.0532 12.3789 13.6333 12.5938 14.2349 12.5938C14.7935 12.5938 15.4165 12.3789 15.8892 12.0352C16.147 11.8633 16.4907 11.8848 16.7271 12.0781C17.0493 12.3359 17.436 12.5293 17.8228 12.6152C18.188 12.7012 18.4243 13.0879 18.3384 13.4531C18.2524 13.8184 17.8657 14.0547 17.5005 13.9688C16.9849 13.8398 16.5337 13.6035 16.2544 13.4316C15.6313 13.7539 14.9438 13.9688 14.2349 13.9688C13.5474 13.9688 12.9243 13.7754 12.4946 13.582C12.3657 13.5176 12.2583 13.4531 12.1724 13.4102C12.0649 13.4531 11.9575 13.5176 11.8286 13.582C11.3989 13.7754 10.7759 13.9688 10.1099 13.9688C9.40088 13.9688 8.69189 13.7539 8.06885 13.4316C7.78955 13.6035 7.33838 13.8398 6.82275 13.9688C6.45752 14.0547 6.0708 13.8184 5.98486 13.4531C5.89893 13.0664 6.13525 12.7012 6.50049 12.6152C6.88721 12.5293 7.29541 12.3359 7.59619 12.0781C7.83252 11.8848 8.17627 11.8633 8.43408 12.0352C8.90674 12.3789 9.52979 12.5938 10.1099 12.5938C10.6899 12.5938 11.2915 12.3789 11.7642 12.0352ZM14.2349 15C14.7935 15 15.4165 14.7852 15.8892 14.4414C16.147 14.2695 16.4907 14.291 16.7271 14.4844C17.0493 14.7422 17.436 14.9355 17.8228 15.0215C18.188 15.1074 18.4243 15.4941 18.3384 15.8594C18.2524 16.2246 17.8657 16.4609 17.5005 16.375C16.9849 16.2461 16.5337 16.0098 16.2544 15.8379C15.6313 16.1602 14.9438 16.375 14.2349 16.375C13.5474 16.375 12.9243 16.1816 12.4946 15.9883C12.3657 15.9238 12.2583 15.8594 12.1724 15.8164C12.0649 15.8594 11.9575 15.9238 11.8286 15.9883C11.3989 16.1816 10.7759 16.375 10.1099 16.375C9.40088 16.375 8.69189 16.1602 8.06885 15.8379C7.78955 16.0098 7.33838 16.2461 6.82275 16.375C6.45752 16.4609 6.0708 16.2246 5.98486 15.8594C5.89893 15.4727 6.13525 15.1074 6.50049 15.0215C6.88721 14.9355 7.29541 14.7422 7.59619 14.4844C7.83252 14.291 8.17627 14.2695 8.43408 14.4414C8.90674 14.7852 9.52979 15 10.1099 15C10.6899 15 11.2915 14.7852 11.7642 14.4414C12.0005 14.2695 12.3228 14.2695 12.5591 14.4414C13.0532 14.7852 13.6333 15 14.2349 15Z" fill="white"/>
</svg>
