<svg width="25" height="33" viewBox="0 0 25 33" fill="none" xmlns="http://www.w3.org/2000/svg">
<path d="M23.9224 12.5C23.9224 17.8281 16.8384 27.2129 13.6899 31.1484C12.9634 32.0566 11.5708 32.0566 10.8442 31.1484C7.75635 27.2129 0.672363 17.8281 0.672363 12.5C0.672363 6.08203 5.87939 0.875 12.2974 0.875C18.7153 0.875 23.9224 6.08203 23.9224 12.5Z" fill="#80C3FF"/>
<path d="M11.1724 8.75C11.1724 8.35156 11.5005 8 11.9224 8C12.3208 8 12.6724 8.35156 12.6724 8.75V9.03125L14.9224 8.75C15.3208 8.75 15.6724 9.10156 15.6724 9.5C15.6724 9.92188 15.3208 10.25 14.9224 10.25L12.6724 9.96875L11.9458 9.89844L11.9224 9.875L11.8989 9.89844L11.1724 9.96875L8.92236 10.25C8.50049 10.25 8.17236 9.92188 8.17236 9.5C8.17236 9.10156 8.50049 8.75 8.92236 8.75L11.1724 9.03125V8.75ZM7.42236 12.5H9.67236L10.188 11.9844C10.3286 11.8438 10.5161 11.75 10.7271 11.75H11.1724V10.7422L11.9224 10.6484L12.6724 10.7422V11.75H13.0942C13.3052 11.75 13.4927 11.8438 13.6333 11.9844L14.1724 12.5H14.9224C16.9849 12.5 18.6724 14.1875 18.6724 16.25C18.6724 16.6719 18.3208 17 17.9224 17H16.4224C16.0005 17 15.6724 16.6719 15.6724 16.25C15.6724 15.8516 15.3208 15.5 14.9224 15.5H14.0552C13.5864 16.1797 12.813 16.625 11.9224 16.625C11.0317 16.625 10.2349 16.1797 9.76611 15.5H7.42236C7.00049 15.5 6.67236 15.1719 6.67236 14.75V13.25C6.67236 12.8516 7.00049 12.5 7.42236 12.5Z" fill="white"/>
</svg>
