<svg width="25" height="33" viewBox="0 0 25 33" fill="none" xmlns="http://www.w3.org/2000/svg">
<path d="M23.9224 12.5C23.9224 17.8281 16.8384 27.2129 13.6899 31.1484C12.9634 32.0566 11.5708 32.0566 10.8442 31.1484C7.75635 27.2129 0.672363 17.8281 0.672363 12.5C0.672363 6.08203 5.87939 0.875 12.2974 0.875C18.7153 0.875 23.9224 6.08203 23.9224 12.5Z" fill="#80C3FF"/>
<path d="M8.73486 13.25C7.59619 13.25 6.67236 12.3262 6.67236 11.1875C6.67236 10.2852 7.25244 9.51172 8.06885 9.23242C8.04736 9.10352 8.04736 8.95312 8.04736 8.78125C8.04736 7.4707 9.12158 6.375 10.4536 6.375C11.3774 6.375 12.1724 6.91211 12.5806 7.66406C12.8813 7.29883 13.354 7.0625 13.8911 7.0625C14.8364 7.0625 15.6099 7.83594 15.6099 8.78125C15.6099 8.91016 15.5884 9.01758 15.5669 9.125C15.5669 9.125 15.5884 9.125 15.6099 9.125C16.7485 9.125 17.6724 10.0488 17.6724 11.1875C17.6724 12.3262 16.7485 13.25 15.6099 13.25H8.73486ZM8.58447 14.3672C8.60596 14.3242 8.67041 14.2812 8.73486 14.2812C8.77783 14.2812 8.84229 14.3242 8.86377 14.3672L9.61572 15.7637C9.72314 15.9355 9.76611 16.1074 9.76611 16.2793V16.3438C9.76611 16.9238 9.29346 17.375 8.73486 17.375C8.15479 17.375 7.70361 16.9238 7.70361 16.3438V16.2793C7.70361 16.1074 7.74658 15.9141 7.83252 15.7637L8.58447 14.3672ZM12.022 14.3672C12.0435 14.3242 12.1079 14.2812 12.1724 14.2812C12.2153 14.2812 12.2798 14.3242 12.3013 14.3672L13.0532 15.7637C13.1606 15.9355 13.2036 16.1074 13.2036 16.2793V16.3438C13.2036 16.9238 12.731 17.375 12.1724 17.375C11.5923 17.375 11.1411 16.9238 11.1411 16.3438V16.2793C11.1411 16.1074 11.1841 15.9141 11.27 15.7637L12.022 14.3672ZM14.7075 15.7637L15.4595 14.3672C15.481 14.3242 15.5454 14.2812 15.6099 14.2812C15.6528 14.2812 15.7173 14.3242 15.7388 14.3672L16.4907 15.7637C16.5981 15.9355 16.6411 16.1074 16.6411 16.2793V16.3438C16.6411 16.9238 16.1685 17.375 15.6099 17.375C15.0298 17.375 14.5786 16.9238 14.5786 16.3438V16.2793C14.5786 16.1074 14.6216 15.9141 14.7075 15.7637Z" fill="white"/>
</svg>
