<svg width="25" height="33" viewBox="0 0 25 33" fill="none" xmlns="http://www.w3.org/2000/svg">
<path d="M23.9224 12.5C23.9224 17.8281 16.8384 27.2129 13.6899 31.1484C12.9634 32.0566 11.5708 32.0566 10.8442 31.1484C7.75635 27.2129 0.672363 17.8281 0.672363 12.5C0.672363 6.08203 5.87939 0.875 12.2974 0.875C18.7153 0.875 23.9224 6.08203 23.9224 12.5Z" fill="#80C3FF"/>
<path d="M11.7642 7.87891C12.0005 7.70703 12.3228 7.70703 12.5591 7.87891C13.0532 8.22266 13.6333 8.4375 14.2349 8.4375C14.7935 8.4375 15.4165 8.22266 15.8892 7.87891C16.147 7.70703 16.4907 7.72852 16.7271 7.92188C17.0493 8.17969 17.436 8.37305 17.8228 8.45898C18.188 8.54492 18.4243 8.91016 18.3384 9.29688C18.2524 9.66211 17.8657 9.89844 17.5005 9.8125C16.9849 9.68359 16.5337 9.44727 16.2544 9.27539C15.6313 9.59766 14.9438 9.8125 14.2349 9.8125C13.5474 9.8125 12.9243 9.61914 12.4946 9.42578C12.3657 9.36133 12.2583 9.29688 12.1724 9.25391C12.0649 9.29688 11.9575 9.36133 11.8286 9.42578C11.3989 9.61914 10.7759 9.8125 10.1099 9.8125C9.40088 9.8125 8.69189 9.59766 8.06885 9.27539C7.78955 9.44727 7.33838 9.68359 6.82275 9.8125C6.45752 9.89844 6.0708 9.66211 5.98486 9.29688C5.89893 8.93164 6.13525 8.54492 6.50049 8.45898C6.88721 8.37305 7.29541 8.17969 7.59619 7.92188C7.83252 7.72852 8.17627 7.70703 8.43408 7.87891C8.90674 8.22266 9.52979 8.4375 10.1099 8.4375C10.6899 8.4375 11.2915 8.22266 11.7642 7.87891ZM12.5591 14.0664C13.0532 14.4102 13.6333 14.625 14.2349 14.625C14.7935 14.625 15.4165 14.4102 15.8892 14.0664C16.147 13.8945 16.4907 13.916 16.7271 14.1094C17.0493 14.3672 17.436 14.5605 17.8228 14.6465C18.188 14.7324 18.4243 15.0977 18.3384 15.4844C18.2524 15.8496 17.8657 16.0859 17.5005 16C16.9849 15.8711 16.5337 15.6348 16.2544 15.4629C15.6313 15.7852 14.9438 16 14.2349 16C13.5474 16 12.9243 15.8066 12.4946 15.6133C12.3657 15.5488 12.2583 15.4844 12.1724 15.4414C12.0649 15.4844 11.9575 15.5488 11.8286 15.6133C11.3989 15.8066 10.7759 16 10.1099 16C9.40088 16 8.69189 15.7852 8.06885 15.4629C7.78955 15.6348 7.33838 15.8711 6.82275 16C6.45752 16.0859 6.0708 15.8496 5.98486 15.4844C5.89893 15.1191 6.13525 14.7324 6.50049 14.6465C6.88721 14.5605 7.29541 14.3672 7.59619 14.1094C7.83252 13.916 8.17627 13.8945 8.43408 14.0664C8.90674 14.4102 9.52979 14.625 10.1099 14.625C10.6899 14.625 11.2915 14.4102 11.7642 14.0664C12.0005 13.8945 12.3228 13.8945 12.5591 14.0664ZM12.5591 10.9727C13.0532 11.3164 13.6333 11.5312 14.2349 11.5312C14.7935 11.5312 15.4165 11.3164 15.8892 10.9727C16.147 10.8008 16.4907 10.8223 16.7271 11.0156C17.0493 11.2734 17.436 11.4668 17.8228 11.5527C18.188 11.6387 18.4243 12.0039 18.3384 12.3906C18.2524 12.7559 17.8657 12.9922 17.5005 12.9062C16.9849 12.7773 16.5337 12.541 16.2544 12.3691C15.6313 12.6914 14.9438 12.9062 14.2349 12.9062C13.5474 12.9062 12.9243 12.7129 12.4946 12.5195C12.3657 12.4551 12.2583 12.3906 12.1724 12.3477C12.0649 12.3906 11.9575 12.4551 11.8286 12.5195C11.3989 12.7129 10.7759 12.9062 10.1099 12.9062C9.40088 12.9062 8.69189 12.6914 8.06885 12.3691C7.78955 12.541 7.33838 12.7773 6.82275 12.9062C6.45752 12.9922 6.0708 12.7559 5.98486 12.3906C5.89893 12.0254 6.13525 11.6387 6.50049 11.5527C6.88721 11.4668 7.29541 11.2734 7.59619 11.0156C7.83252 10.8223 8.17627 10.8008 8.43408 10.9727C8.90674 11.3164 9.52979 11.5312 10.1099 11.5312C10.6899 11.5312 11.2915 11.3164 11.7642 10.9727C12.0005 10.8008 12.3228 10.8008 12.5591 10.9727Z" fill="white"/>
</svg>
