<svg width="25" height="33" viewBox="0 0 25 33" fill="none" xmlns="http://www.w3.org/2000/svg">
<path d="M23.9224 12.5C23.9224 17.8281 16.8384 27.2129 13.6899 31.1484C12.9634 32.0566 11.5708 32.0566 10.8442 31.1484C7.75635 27.2129 0.672363 17.8281 0.672363 12.5C0.672363 6.08203 5.87939 0.875 12.2974 0.875C18.7153 0.875 23.9224 6.08203 23.9224 12.5Z" fill="#75CEC5"/>
<path d="M12.0474 8.75H14.4849C15.4692 8.75 16.3364 8.21094 16.7817 7.36719C16.8755 7.22656 17.1099 7.22656 17.1567 7.36719C17.4849 8.23438 17.6724 9.17188 17.6724 10.1797C17.6724 13.9531 15.1646 17 12.0708 17H12.0474C10.1255 17 8.5083 15.7109 8.03955 13.9297C7.26611 14.6562 6.79736 15.6875 6.79736 16.8125V17.1875C6.79736 17.5156 6.53955 17.75 6.23486 17.75C5.90674 17.75 5.67236 17.5156 5.67236 17.1875V16.8125C5.67236 15.0547 6.56299 13.5078 7.92236 12.6172C8.41455 12.2656 8.97705 12.0312 9.58643 11.8906C9.96143 11.7969 10.3364 11.75 10.7349 11.75H12.4224H12.7974C12.9849 11.75 13.1724 11.5859 13.1724 11.375C13.1724 11.1875 12.9849 11 12.7974 11H10.7349C9.77393 11 8.8833 11.2344 8.10986 11.6328C8.62549 9.96875 10.1958 8.75 12.0474 8.75Z" fill="white"/>
</svg>
