<svg width="25" height="33" viewBox="0 0 25 33" fill="none" xmlns="http://www.w3.org/2000/svg">
<path d="M23.9224 12.5C23.9224 17.8281 16.8384 27.2129 13.6899 31.1484C12.9634 32.0566 11.5708 32.0566 10.8442 31.1484C7.6958 27.2129 0.672363 17.8281 0.672363 12.5C0.672363 6.08203 5.81885 0.875 12.2974 0.875C18.7153 0.875 23.9224 6.08203 23.9224 12.5Z" fill="#8E8E8E"/>
<path d="M6.42236 11C6.00049 11 5.67236 10.6719 5.67236 10.25C5.67236 9.85156 6.00049 9.5 6.42236 9.5H13.9224C14.3208 9.5 14.6724 9.17188 14.6724 8.75C14.6724 8.35156 14.3208 8 13.9224 8H13.1724C12.7505 8 12.4224 7.67188 12.4224 7.25C12.4224 6.85156 12.7505 6.5 13.1724 6.5H13.9224C15.1411 6.5 16.1724 7.53125 16.1724 8.75C16.1724 9.99219 15.1411 11 13.9224 11H6.42236ZM9.42236 14C10.6411 14 11.6724 15.0312 11.6724 16.25C11.6724 17.4922 10.6411 18.5 9.42236 18.5H8.67236C8.25049 18.5 7.92236 18.1719 7.92236 17.75C7.92236 17.3516 8.25049 17 8.67236 17H9.42236C9.8208 17 10.1724 16.6719 10.1724 16.25C10.1724 15.8516 9.8208 15.5 9.42236 15.5H6.42236C6.00049 15.5 5.67236 15.1719 5.67236 14.75C5.67236 14.3516 6.00049 14 6.42236 14H9.42236ZM15.4224 11.75C16.6411 11.75 17.6724 12.7812 17.6724 14C17.6724 15.2422 16.6411 16.25 15.4224 16.25H14.6724C14.2505 16.25 13.9224 15.9219 13.9224 15.5C13.9224 15.1016 14.2505 14.75 14.6724 14.75H15.4224C15.8208 14.75 16.1724 14.4219 16.1724 14C16.1724 13.6016 15.8208 13.25 15.4224 13.25H6.42236C6.00049 13.25 5.67236 12.9219 5.67236 12.5C5.67236 12.1016 6.00049 11.75 6.42236 11.75H15.4224Z" fill="white"/>
</svg>
