<svg width="25" height="33" viewBox="0 0 25 33" fill="none" xmlns="http://www.w3.org/2000/svg">
<path d="M23.9224 12.5C23.9224 17.8281 16.8384 27.2129 13.6899 31.1484C12.9634 32.0566 11.5708 32.0566 10.8442 31.1484C7.75635 27.2129 0.672363 17.8281 0.672363 12.5C0.672363 6.08203 5.87939 0.875 12.2974 0.875C18.7153 0.875 23.9224 6.08203 23.9224 12.5Z" fill="#CAA281"/>
<path d="M10.1411 9.82812C11.0552 9.05469 12.2974 8.375 13.7974 8.375C15.2739 8.375 16.5161 9.05469 17.4302 9.82812C18.3442 10.6016 19.0005 11.5156 19.3286 12.1719C19.4458 12.3828 19.4458 12.6406 19.3286 12.8516C19.0005 13.4844 18.3442 14.4219 17.4302 15.1953C16.5161 15.9688 15.2739 16.625 13.7974 16.625C12.2974 16.625 11.0552 15.9688 10.1411 15.1953C9.76611 14.8672 9.43799 14.5156 9.1333 14.1875L7.04736 15.4062C6.74268 15.5703 6.36768 15.5234 6.1333 15.2891C5.89893 15.0547 5.85205 14.6797 6.01611 14.3984L7.09424 12.5L6.01611 10.625C5.85205 10.3438 5.89893 9.96875 6.1333 9.73438C6.36768 9.5 6.74268 9.45312 7.04736 9.61719L9.1333 10.8359C9.43799 10.5078 9.76611 10.1562 10.1411 9.82812ZM16.4224 12.5C16.4224 12.1016 16.0708 11.75 15.6724 11.75C15.2505 11.75 14.9224 12.1016 14.9224 12.5C14.9224 12.9219 15.2505 13.25 15.6724 13.25C16.0708 13.25 16.4224 12.9219 16.4224 12.5Z" fill="white"/>
</svg>
