<svg width="25" height="33" viewBox="0 0 25 33" fill="none" xmlns="http://www.w3.org/2000/svg">
<path d="M23.9224 12.5C23.9224 17.8281 16.8384 27.2129 13.6899 31.1484C12.9634 32.0566 11.5708 32.0566 10.8442 31.1484C7.75635 27.2129 0.672363 17.8281 0.672363 12.5C0.672363 6.08203 5.87939 0.875 12.2974 0.875C18.7153 0.875 23.9224 6.08203 23.9224 12.5Z" fill="#75CEC5"/>
<path d="M12.1724 7.0625C12.4302 7.0625 12.688 7.21289 12.8169 7.42773L17.479 14.8613C17.6079 15.0547 17.6724 15.2695 17.6724 15.5059C17.6724 16.1504 17.1353 16.6875 16.4692 16.6875H7.854C7.20947 16.6875 6.67236 16.1504 6.67236 15.5059C6.67236 15.2695 6.73682 15.0547 6.84424 14.8613L11.5063 7.42773C11.6353 7.21289 11.8931 7.0625 12.1724 7.0625ZM13.5688 11.1875L12.1724 8.97461L10.4536 11.6816L10.8618 12.1973C10.9907 12.3906 11.27 12.3906 11.3989 12.1973L11.9575 11.4668C12.0864 11.2949 12.2798 11.1875 12.5161 11.1875H13.5688Z" fill="white"/>
</svg>
