<svg width="25" height="33" viewBox="0 0 25 33" fill="none" xmlns="http://www.w3.org/2000/svg">
<path d="M23.9224 12.5C23.9224 17.8281 16.8384 27.2129 13.6899 31.1484C12.9634 32.0566 11.5708 32.0566 10.8442 31.1484C7.75635 27.2129 0.672363 17.8281 0.672363 12.5C0.672363 6.08203 5.87939 0.875 12.2974 0.875C18.7153 0.875 23.9224 6.08203 23.9224 12.5Z" fill="#75CEC5"/>
<path d="M9.07861 10.2422C9.70166 9.125 10.8833 8.4375 12.1724 8.4375C13.4399 8.4375 14.6216 9.125 15.2446 10.2422L17.5864 14.2812C17.8442 14.7539 17.522 15.3125 16.9849 15.3125H7.33838C6.80127 15.3125 6.479 14.7539 6.73682 14.2812L9.07861 10.2422Z" fill="white"/>
</svg>
